HIERARCHY
ROOT Hips
{
	OFFSET 0.000000 0.000000 0.000000
	CHANNELS 6 Xposition Yposition Zposition Xrotation Yrotation Zrotation
	JOINT LeftUpLeg_virtual
	{
		OFFSET 0.000000 0.000000 0.000000
		CHANNELS 3 Xrotation Yrotation Zrotation
		JOINT LeftUpLeg
		{
			OFFSET 13.026900 -6.336304 -1.092800
			CHANNELS 3 Xrotation Yrotation Zrotation
			JOINT LeftLeg
			{
				OFFSET 0.524474 -46.096886 9.782700
				CHANNELS 3 Xrotation Yrotation Zrotation
				JOINT LeftFoot
				{
					OFFSET -0.524474 -53.427422 -12.948200
					CHANNELS 3 Xrotation Yrotation Zrotation
					JOINT LeftToeBase
					{
						OFFSET 0.192200 -14.009700 16.364100
						CHANNELS 3 Xrotation Yrotation Zrotation
						JOINT LeftToe_End
						{
							OFFSET -1.784700 -0.561700 9.474800
							CHANNELS 3 Xrotation Yrotation Zrotation
							End Site
							{
								OFFSET 0 0 0
							}
						}
					}
				}
			}
		}
	}
	JOINT RightUpLeg_virtual
	{
		OFFSET 0.000000 0.000000 0.000000
		CHANNELS 3 Xrotation Yrotation Zrotation
		JOINT RightUpLeg
		{
			OFFSET -12.883000 -6.336304 -1.092800
			CHANNELS 3 Xrotation Yrotation Zrotation
			JOINT RightLeg
			{
				OFFSET -0.524587 -46.096825 9.782800
				CHANNELS 3 Xrotation Yrotation Zrotation
				JOINT RightFoot
				{
					OFFSET 0.524587 -53.427383 -12.948300
					CHANNELS 3 Xrotation Yrotation Zrotation
					JOINT RightToeBase
					{
						OFFSET -0.192200 -14.009700 16.364100
						CHANNELS 3 Xrotation Yrotation Zrotation
						JOINT RightToe_End
						{
							OFFSET 1.784700 -0.561700 9.474800
							CHANNELS 3 Xrotation Yrotation Zrotation
							End Site
							{
								OFFSET 0 0 0
							}
						}
					}
				}
			}
		}
	}
	JOINT Spine_virtual
	{
		OFFSET 0.000000 0.000000 0.000000
		CHANNELS 3 Xrotation Yrotation Zrotation
		JOINT Spine
		{
			OFFSET 0.072000 7.257294 -0.789700
			CHANNELS 3 Xrotation Yrotation Zrotation
			JOINT Spine1
			{
				OFFSET 0.000000 12.508769 -0.658067
				CHANNELS 3 Xrotation Yrotation Zrotation
				JOINT Spine1_split
				{
					OFFSET 0.000000 12.508769 -0.658067
					CHANNELS 3 Xrotation Yrotation Zrotation
					JOINT Spine2
					{
						OFFSET 0.000000 12.508769 -0.658067
						CHANNELS 3 Xrotation Yrotation Zrotation
						JOINT Neck_virtual
						{
							OFFSET 0.000000 0.000000 0.000000
							CHANNELS 3 Xrotation Yrotation Zrotation
							JOINT Neck
							{
								OFFSET 0.000000 14.033295 7.520400
								CHANNELS 3 Xrotation Yrotation Zrotation
								JOINT Head
								{
									OFFSET 0.000000 8.198502 5.703100
									CHANNELS 3 Xrotation Yrotation Zrotation
									JOINT HeadTop_End
									{
										OFFSET 0.000000 17.760803 13.332701
										CHANNELS 3 Xrotation Yrotation Zrotation
										End Site
										{
											OFFSET 0 0 0
										}
									}
								}
							}
						}
						JOINT LeftShoulder_virtual
						{
							OFFSET 0.000000 0.000000 0.000000
							CHANNELS 3 Xrotation Yrotation Zrotation
							JOINT LeftShoulder
							{
								OFFSET 6.292450 5.785301 -0.669000
								CHANNELS 3 Xrotation Yrotation Zrotation
								JOINT LeftShoulder_split
								{
									OFFSET 6.292450 5.785301 -0.669000
									CHANNELS 3 Xrotation Yrotation Zrotation
									JOINT LeftArm
									{
										OFFSET 13.907140 -6.093903 1.965100
										CHANNELS 3 Xrotation Yrotation Zrotation
										JOINT LeftForeArm
										{
											OFFSET 34.140198 0.000000 0.000000
											CHANNELS 3 Xrotation Yrotation Zrotation
											JOINT LeftHand
											{
												OFFSET 40.960209 0.000000 0.000000
												CHANNELS 3 Xrotation Yrotation Zrotation
												End Site
												{
													OFFSET 0 0 0
												}
											}
										}
									}
								}
							}
						}
						JOINT RightShoulder_virtual
						{
							OFFSET 0.000000 0.000000 0.000000
							CHANNELS 3 Xrotation Yrotation Zrotation
							JOINT RightShoulder
							{
								OFFSET -6.292450 5.785301 -0.669000
								CHANNELS 3 Xrotation Yrotation Zrotation
								JOINT RightShoulder_split
								{
									OFFSET -6.292450 5.785301 -0.669000
									CHANNELS 3 Xrotation Yrotation Zrotation
									JOINT RightArm
									{
										OFFSET -13.907140 -6.093903 1.965100
										CHANNELS 3 Xrotation Yrotation Zrotation
										JOINT RightForeArm
										{
											OFFSET -34.140198 0.000000 0.000000
											CHANNELS 3 Xrotation Yrotation Zrotation
											JOINT RightHand
											{
												OFFSET -40.960209 0.000000 0.000000
												CHANNELS 3 Xrotation Yrotation Zrotation
												End Site
												{
													OFFSET 0 0 0
												}
											}
										}
									}
								}
							}
						}
					}
				}
			}
		}
	}
}
MOTION
Frames: 4
Frame Time: 0.03333333
0.432598 87.551689 -6.795689 0.000000 0.000000 0.000000 -10.345892 4.077438 0.425926 -39.093544 -4.369044 14.843439 71.658752 -0.758734 0.311928 -21.704946 -3.477888 -12.597451 -0.000107 -0.000006 0.000002 0.000000 0.000000 0.000000 -10.345892 4.077438 0.425926 -35.291963 -3.898295 -20.754568 72.648242 0.149243 -0.549292 -25.420788 -2.218579 12.416967 -0.000023 -0.000000 0.000002 0.000000 0.000000 0.000000 -10.345892 4.077438 0.425926 24.173356 0.230599 0.773736 14.300673 -0.000464 0.896335 0.000000 0.000000 0.000000 0.000000 0.000000 0.000000 14.301753 -0.006504 0.892862 18.888407 -1.028622 -1.227771 -9.502150 -3.128163 -0.026382 0.000000 0.000000 0.000000 14.301753 -0.006504 0.892862 1.369046 -20.607348 -8.030736 0.000000 0.000000 0.000000 -26.870562 1.825428 -58.552008 -139.815051 -76.593605 -137.273415 0.000000 0.000000 0.000000 14.301753 -0.006504 0.892862 4.241958 6.025675 23.458809 0.000000 0.000000 0.000000 -22.328976 30.789895 40.151329 -101.532367 65.933701 95.052430 0.000000 0.000000 0.000000 
0.362356 88.314919 -6.202660 0.000000 0.000000 0.000000 -11.642324 4.055779 0.367166 -36.481447 -4.410245 14.890483 70.676257 -0.753485 0.313251 -22.002078 -3.152960 -12.702869 -0.000107 -0.000006 0.000002 0.000000 0.000000 0.000000 -11.642324 4.055779 0.367166 -32.734477 -4.414336 -20.443769 71.526458 0.127618 -0.538764 -25.626911 -2.277609 12.374382 -0.000023 -0.000000 0.000002 0.000000 0.000000 0.000000 -11.642324 4.055779 0.367166 23.956561 0.214647 0.753245 13.992115 -0.012110 0.874928 0.000000 0.000000 0.000000 0.000000 0.000000 0.000000 13.993084 -0.019272 0.870006 17.101284 -1.158556 -1.120069 -9.419536 -3.200687 0.179589 0.000000 0.000000 0.000000 13.993084 -0.019272 0.870006 1.274355 -20.464772 -8.784597 0.000000 0.000000 0.000000 -24.361975 0.125576 -58.409551 -134.037203 -77.572439 -130.766362 0.000000 0.000000 0.000000 13.993084 -0.019272 0.870006 4.281750 6.062522 24.486793 0.000000 0.000000 0.000000 -20.183597 30.544005 38.966933 -101.168571 66.637416 94.218642 0.000000 0.000000 0.000000 
0.247133 89.282211 -5.609715 0.000000 0.000000 0.000000 -12.399369 4.118899 0.331442 -34.275184 -4.408605 14.871842 69.325238 -0.697882 0.312724 -22.082239 -2.904654 -12.809962 -0.000107 -0.000007 0.000002 0.000000 0.000000 0.000000 -12.399369 4.118899 0.331442 -30.591608 -5.022969 -20.117330 70.105608 0.134134 -0.524935 -25.678960 -2.403583 12.241779 -0.000023 0.000003 0.000002 0.000000 0.000000 0.000000 -12.399369 4.118899 0.331442 23.645377 0.184969 0.755135 13.485204 -0.074091 0.867700 0.000000 0.000000 0.000000 0.000000 0.000000 0.000000 13.486081 -0.083625 0.864977 15.039846 -1.249821 -1.288810 -9.417303 -3.318418 0.602192 0.000000 0.000000 0.000000 13.486081 -0.083625 0.864977 1.157240 -20.150258 -9.778060 0.000000 0.000000 0.000000 -22.947103 -1.113757 -58.002916 -128.515815 -78.463820 -124.614602 0.000000 0.000000 0.000000 13.486081 -0.083625 0.864977 4.416302 5.793506 25.390709 0.000000 0.000000 0.000000 -17.739866 29.670185 39.116753 -104.281614 68.988647 96.225973 0.000000 0.000000 0.000000 
0.073987 90.235733 -5.017529 0.000000 0.000000 0.000000 -12.535450 4.164728 0.376118 -32.754292 -4.257915 14.841475 67.901889 -0.690620 0.310425 -22.047041 -2.722774 -12.894275 -0.000107 -0.000006 0.000002 0.000000 0.000000 0.000000 -12.535450 4.164728 0.376118 -29.174214 -5.524401 -19.840380 68.739775 0.148496 -0.511936 -25.686516 -2.549273 12.062163 -0.000023 0.000002 0.000002 0.000000 0.000000 0.000000 -12.535450 4.164728 0.376118 23.210004 0.101589 0.737292 12.703015 -0.226610 0.772105 0.000000 0.000000 0.000000 0.000000 0.000000 0.000000 12.703655 -0.233556 0.766654 12.861715 -1.200976 -1.613198 -9.877429 -3.291000 0.800853 0.000000 0.000000 0.000000 12.703655 -0.233556 0.766654 1.104421 -19.890667 -10.278940 0.000000 0.000000 0.000000 -21.196848 -2.412181 -57.702039 -130.960312 -81.096202 -125.841427 0.000000 0.000000 0.000000 12.703655 -0.233556 0.766654 4.503875 5.478726 25.672279 0.000000 0.000000 0.000000 -14.594897 29.842118 39.506149 -105.759052 71.476837 96.313297 0.000000 0.000000 0.000000 
